<?xml version="1.0" standalone="no"?>
<!DOCTYPE svg PUBLIC "-//W3C//DTD SVG 20010904//EN"
 "http://www.w3.org/TR/2001/REC-SVG-20010904/DTD/svg10.dtd">
<svg version="1.0" xmlns="http://www.w3.org/2000/svg"
 width="700.000000pt" height="700.000000pt" viewBox="0 0 700.000000 700.000000"
 preserveAspectRatio="xMidYMid meet">
<metadata>
Created by potrace 1.14, written by Peter Selinger 2001-2017
</metadata>
<g transform="translate(0.000000,700.000000) scale(0.100000,-0.100000)"
fill="#000000" stroke="none">
<path d="M3960 5464 c-265 -31 -498 -106 -785 -253 -304 -156 -599 -365 -823
-585 -87 -84 -108 -111 -94 -120 15 -9 184 30 373 87 701 212 1250 326 1575
329 114 2 135 -1 175 -20 83 -40 105 -125 74 -287 -54 -287 -307 -889 -650
-1545 -140 -267 -185 -364 -174 -375 24 -23 2119 637 2637 832 67 25 121 47
119 49 -3 3 -445 -22 -694 -39 -29 -2 -53 -3 -53 -2 0 1 9 36 20 78 42 167 52
706 16 875 -83 383 -432 769 -825 912 -144 53 -225 62 -556 65 -165 2 -316 1
-335 -1z"/>
<path d="M3560 4537 c-19 -5 -609 -200 -1310 -433 -701 -232 -1369 -450 -1485
-484 -116 -34 -217 -66 -225 -71 -8 -5 218 -9 523 -9 295 0 537 -3 537 -7 0
-5 -11 -66 -24 -138 -39 -212 -49 -337 -43 -543 8 -272 47 -440 148 -647 176
-358 561 -637 971 -702 132 -21 521 -24 658 -5 494 69 985 292 1371 624 273
234 619 601 619 655 0 12 -7 14 -31 9 -52 -10 -445 -160 -829 -316 -1188 -483
-1345 -540 -1482 -540 -101 0 -408 67 -506 110 l-44 20 27 47 c16 27 117 179
225 338 616 904 840 1297 929 1625 29 106 61 299 63 380 2 97 -12 111 -92 87z"/>
</g>
</svg>
