<svg width="142" height="18" viewBox="0 0 142 18" fill="none" xmlns="http://www.w3.org/2000/svg">
<path d="M1.50331 14V4.802H4.05131C4.73264 4.802 5.32998 4.886 5.84331 5.054C6.35664 5.222 6.75331 5.502 7.03331 5.894C7.32264 6.286 7.46731 6.81333 7.46731 7.476C7.46731 8.11067 7.32731 8.63333 7.04731 9.044C6.76731 9.45467 6.37531 9.76267 5.87131 9.968C5.36731 10.1733 4.77931 10.276 4.10731 10.276H2.53931V14H1.50331ZM2.53931 9.422H3.95331C4.79331 9.422 5.41398 9.268 5.81531 8.96C6.22598 8.64267 6.43131 8.148 6.43131 7.476C6.43131 6.78533 6.21664 6.30933 5.78731 6.048C5.36731 5.77733 4.73731 5.642 3.89731 5.642H2.53931V9.422ZM11.2348 14.168C10.6842 14.168 10.1708 14.028 9.69484 13.748C9.21884 13.468 8.83617 13.0667 8.54684 12.544C8.25751 12.012 8.11284 11.368 8.11284 10.612C8.11284 9.86533 8.25751 9.226 8.54684 8.694C8.83617 8.15267 9.21884 7.742 9.69484 7.462C10.1708 7.182 10.6842 7.042 11.2348 7.042C11.7855 7.042 12.2942 7.182 12.7608 7.462C13.2368 7.742 13.6195 8.15267 13.9088 8.694C14.2075 9.226 14.3568 9.86533 14.3568 10.612C14.3568 11.368 14.2075 12.012 13.9088 12.544C13.6195 13.0667 13.2368 13.468 12.7608 13.748C12.2942 14.028 11.7855 14.168 11.2348 14.168ZM11.2348 13.314C11.6455 13.314 12.0048 13.202 12.3128 12.978C12.6302 12.754 12.8728 12.4413 13.0408 12.04C13.2182 11.6293 13.3068 11.1533 13.3068 10.612C13.3068 10.08 13.2182 9.60867 13.0408 9.198C12.8728 8.78733 12.6302 8.47 12.3128 8.246C12.0048 8.01267 11.6455 7.896 11.2348 7.896C10.8335 7.896 10.4742 8.01267 10.1568 8.246C9.84884 8.47 9.60617 8.78733 9.42884 9.198C9.26084 9.60867 9.17684 10.08 9.17684 10.612C9.17684 11.1533 9.26084 11.6293 9.42884 12.04C9.60617 12.4413 9.84884 12.754 10.1568 12.978C10.4742 13.202 10.8335 13.314 11.2348 13.314ZM16.9484 14L15.0304 7.21H16.0804L17.1444 11.256C17.219 11.5733 17.289 11.886 17.3544 12.194C17.429 12.502 17.4944 12.8147 17.5504 13.132H17.6064C17.681 12.8147 17.7557 12.502 17.8304 12.194C17.9144 11.886 17.9984 11.5733 18.0824 11.256L19.1744 7.21H20.1964L21.3024 11.256C21.3864 11.5733 21.4657 11.886 21.5404 12.194C21.6244 12.502 21.7037 12.8147 21.7784 13.132H21.8344C21.909 12.8147 21.979 12.502 22.0444 12.194C22.119 11.886 22.1984 11.5733 22.2824 11.256L23.3184 7.21H24.2984L22.4504 14H21.1904L20.1544 10.206C20.0797 9.87933 20.005 9.55733 19.9304 9.24C19.8557 8.92267 19.7764 8.596 19.6924 8.26H19.6364C19.5524 8.596 19.473 8.92733 19.3984 9.254C19.3237 9.58067 19.2397 9.90733 19.1464 10.234L18.1384 14H16.9484ZM28.1908 14.168C27.5935 14.168 27.0521 14.028 26.5668 13.748C26.0815 13.4587 25.6941 13.0527 25.4048 12.53C25.1155 11.998 24.9708 11.3587 24.9708 10.612C24.9708 9.884 25.1155 9.254 25.4048 8.722C25.6941 8.18067 26.0675 7.76533 26.5248 7.476C26.9915 7.18667 27.4861 7.042 28.0088 7.042C28.5688 7.042 29.0495 7.17267 29.4508 7.434C29.8521 7.69533 30.1555 8.064 30.3608 8.54C30.5755 9.00667 30.6828 9.56667 30.6828 10.22C30.6828 10.3227 30.6781 10.43 30.6688 10.542C30.6595 10.654 30.6455 10.752 30.6268 10.836H25.7688L25.7548 10.094H29.7728C29.7728 9.366 29.6188 8.81533 29.3108 8.442C29.0028 8.05933 28.5735 7.868 28.0228 7.868C27.6868 7.868 27.3601 7.966 27.0428 8.162C26.7255 8.34867 26.4641 8.64733 26.2588 9.058C26.0535 9.45933 25.9508 9.97733 25.9508 10.612C25.9508 11.2187 26.0581 11.7227 26.2728 12.124C26.4875 12.5253 26.7721 12.8287 27.1268 13.034C27.4908 13.2393 27.8875 13.342 28.3168 13.342C28.6528 13.342 28.9608 13.2907 29.2408 13.188C29.5208 13.0853 29.7868 12.9547 30.0388 12.796L30.4168 13.468C30.1275 13.6547 29.8008 13.818 29.4368 13.958C29.0821 14.098 28.6668 14.168 28.1908 14.168ZM32.1134 14V7.21H32.9534L33.0374 8.456H33.0794C33.3128 8.02667 33.5928 7.686 33.9194 7.434C34.2554 7.17267 34.6194 7.042 35.0114 7.042C35.1514 7.042 35.2774 7.056 35.3894 7.084C35.5014 7.10267 35.6088 7.13533 35.7114 7.182L35.5154 8.078C35.4034 8.04067 35.3008 8.01267 35.2074 7.994C35.1234 7.97533 35.0114 7.966 34.8714 7.966C34.5821 7.966 34.2788 8.08733 33.9614 8.33C33.6441 8.56333 33.3641 8.97867 33.1214 9.576V14H32.1134ZM39.1425 14.168C38.5452 14.168 38.0039 14.028 37.5185 13.748C37.0332 13.4587 36.6459 13.0527 36.3565 12.53C36.0672 11.998 35.9225 11.3587 35.9225 10.612C35.9225 9.884 36.0672 9.254 36.3565 8.722C36.6459 8.18067 37.0192 7.76533 37.4765 7.476C37.9432 7.18667 38.4379 7.042 38.9605 7.042C39.5205 7.042 40.0012 7.17267 40.4025 7.434C40.8039 7.69533 41.1072 8.064 41.3125 8.54C41.5272 9.00667 41.6345 9.56667 41.6345 10.22C41.6345 10.3227 41.6299 10.43 41.6205 10.542C41.6112 10.654 41.5972 10.752 41.5785 10.836H36.7205L36.7065 10.094H40.7245C40.7245 9.366 40.5705 8.81533 40.2625 8.442C39.9545 8.05933 39.5252 7.868 38.9745 7.868C38.6385 7.868 38.3119 7.966 37.9945 8.162C37.6772 8.34867 37.4159 8.64733 37.2105 9.058C37.0052 9.45933 36.9025 9.97733 36.9025 10.612C36.9025 11.2187 37.0099 11.7227 37.2245 12.124C37.4392 12.5253 37.7239 12.8287 38.0785 13.034C38.4425 13.2393 38.8392 13.342 39.2685 13.342C39.6045 13.342 39.9125 13.2907 40.1925 13.188C40.4725 13.0853 40.7385 12.9547 40.9905 12.796L41.3685 13.468C41.0792 13.6547 40.7525 13.818 40.3885 13.958C40.0339 14.098 39.6185 14.168 39.1425 14.168ZM45.3472 14.168C44.5072 14.168 43.8305 13.86 43.3172 13.244C42.8132 12.6187 42.5612 11.7413 42.5612 10.612C42.5612 9.884 42.6965 9.254 42.9672 8.722C43.2472 8.19 43.6112 7.77933 44.0592 7.49C44.5072 7.19133 44.9925 7.042 45.5152 7.042C45.9165 7.042 46.2618 7.112 46.5512 7.252C46.8498 7.392 47.1485 7.588 47.4472 7.84L47.4052 6.664V4.004H48.4132V14H47.5732L47.4892 13.174H47.4472C47.1858 13.4447 46.8732 13.678 46.5092 13.874C46.1545 14.07 45.7672 14.168 45.3472 14.168ZM45.5712 13.3C45.8978 13.3 46.2105 13.2207 46.5092 13.062C46.8078 12.894 47.1065 12.6513 47.4052 12.334V8.652C47.0972 8.38133 46.8032 8.19 46.5232 8.078C46.2525 7.966 45.9678 7.91 45.6692 7.91C45.2865 7.91 44.9365 8.02667 44.6192 8.26C44.3112 8.484 44.0638 8.80133 43.8772 9.212C43.6998 9.61333 43.6112 10.08 43.6112 10.612C43.6112 11.4427 43.7792 12.1007 44.1152 12.586C44.4605 13.062 44.9458 13.3 45.5712 13.3ZM53.1305 14V4.802H55.7905C56.4158 4.802 56.9618 4.88133 57.4285 5.04C57.9045 5.18933 58.2732 5.432 58.5345 5.768C58.7958 6.09467 58.9265 6.524 58.9265 7.056C58.9265 7.51333 58.8052 7.924 58.5625 8.288C58.3292 8.652 57.9932 8.904 57.5545 9.044V9.1C58.1238 9.20267 58.5812 9.44067 58.9265 9.814C59.2812 10.178 59.4585 10.6773 59.4585 11.312C59.4585 11.9093 59.3138 12.4087 59.0245 12.81C58.7352 13.2113 58.3292 13.51 57.8065 13.706C57.2838 13.902 56.6818 14 56.0005 14H53.1305ZM54.1665 13.174H55.8325C56.6538 13.174 57.2932 13.02 57.7505 12.712C58.2078 12.404 58.4365 11.928 58.4365 11.284C58.4365 10.6867 58.2125 10.248 57.7645 9.968C57.3165 9.688 56.6725 9.548 55.8325 9.548H54.1665V13.174ZM54.1665 8.75H55.5805C56.4018 8.75 56.9945 8.61 57.3585 8.33C57.7225 8.04067 57.9045 7.658 57.9045 7.182C57.9045 6.61267 57.7132 6.21133 57.3305 5.978C56.9478 5.74467 56.3832 5.628 55.6365 5.628H54.1665V8.75ZM60.7782 16.968C60.6289 16.968 60.4889 16.954 60.3582 16.926C60.2275 16.898 60.1109 16.8653 60.0082 16.828L60.2042 16.002C60.2789 16.03 60.3629 16.0533 60.4562 16.072C60.5589 16.1 60.6522 16.114 60.7362 16.114C61.1282 16.114 61.4549 15.9647 61.7162 15.666C61.9775 15.3767 62.1782 15.008 62.3182 14.56L62.4862 14.042L59.7422 7.21H60.7922L62.2482 11.102C62.3509 11.3913 62.4629 11.704 62.5842 12.04C62.7055 12.3667 62.8175 12.6887 62.9202 13.006H62.9762C63.0789 12.698 63.1769 12.3807 63.2702 12.054C63.3729 11.718 63.4709 11.4007 63.5642 11.102L64.8382 7.21H65.8322L63.2562 14.63C63.0975 15.0593 62.9109 15.4513 62.6962 15.806C62.4815 16.1607 62.2155 16.4407 61.8982 16.646C61.5902 16.8607 61.2169 16.968 60.7782 16.968Z" fill="black"/>
<mask id="mask0_1_1192" style="mask-type:alpha" maskUnits="userSpaceOnUse" x="72" y="2" width="14" height="14">
<path fill-rule="evenodd" clip-rule="evenodd" d="M72 2.42261H85.268V15.5776H72V2.42261Z" fill="white"/>
</mask>
<g mask="url(#mask0_1_1192)">
<rect x="72" y="2.42261" width="13.268" height="13.155" rx="1.81144" fill="#734EE1"/>
<path fill-rule="evenodd" clip-rule="evenodd" d="M74.1463 6.153H76.4877V3.79688H74.1463V6.153Z" fill="white"/>
<path fill-rule="evenodd" clip-rule="evenodd" d="M77.4633 7.13469H79.8047V4.77856H77.4633V7.13469Z" fill="white"/>
<path fill-rule="evenodd" clip-rule="evenodd" d="M75.1219 9.49113H77.4633V7.13501H75.1219V9.49113Z" fill="white"/>
<path fill-rule="evenodd" clip-rule="evenodd" d="M79.8047 11.8471H82.1461V9.49097H79.8047V11.8471Z" fill="white"/>
<path fill-rule="evenodd" clip-rule="evenodd" d="M79.8047 7.13469H82.1461V4.77856H79.8047V7.13469Z" fill="white"/>
<path fill-rule="evenodd" clip-rule="evenodd" d="M77.4633 11.8471H79.8047V9.49097H77.4633V11.8471Z" fill="white"/>
<path fill-rule="evenodd" clip-rule="evenodd" d="M75.1219 14.2033H77.4633V11.8472H75.1219V14.2033Z" fill="white"/>
<path fill-rule="evenodd" clip-rule="evenodd" d="M79.8047 9.49113H82.1461V7.13501H79.8047V9.49113Z" fill="white"/>
<path fill-rule="evenodd" clip-rule="evenodd" d="M75.1219 11.8471H77.4633V9.49097H75.1219V11.8471Z" fill="white"/>
</g>
<path fill-rule="evenodd" clip-rule="evenodd" d="M142 12.2877V13.9928H134.86V4.81104H141.829V6.51616H136.981V8.51018H141.262V10.1629H136.981V12.2877H142ZM126.828 4.81104H128.941V12.2613H133.521V13.9928H126.828V4.81104ZM121.022 9.73797C121.679 9.73797 122.179 9.59285 122.521 9.30262C122.863 9.01238 123.034 8.59987 123.034 8.06554C123.034 7.52135 122.863 7.10481 122.521 6.81412C122.179 6.52389 121.679 6.37877 121.022 6.37877H119.241V9.73797H121.022ZM121.242 4.81104C122.063 4.81104 122.775 4.94675 123.379 5.21772C123.984 5.4887 124.449 5.87344 124.776 6.37194C125.102 6.87045 125.266 7.46077 125.266 8.14291C125.266 8.8161 125.102 9.40418 124.776 9.90716C124.449 10.4097 123.984 10.7949 123.379 11.0614C122.775 11.3279 122.063 11.4614 121.242 11.4614H119.376V13.9928H117.233V4.81104H121.242ZM113.439 8.05837C113.439 7.51687 113.268 7.10167 112.926 6.81233C112.584 6.52344 112.085 6.37877 111.428 6.37877H109.646V9.73797H111.428C112.085 9.73797 112.584 9.59106 112.926 9.29769C113.268 9.00387 113.439 8.59091 113.439 8.05837ZM113.193 13.9928L111.444 11.4354H109.514V13.9928H107.415V4.81104H111.34C112.144 4.81104 112.841 4.94675 113.433 5.21772C114.025 5.4887 114.48 5.87344 114.8 6.37194C115.119 6.87045 115.279 7.46077 115.279 8.14291C115.279 8.82505 115.117 9.41314 114.793 9.90716C114.469 10.4012 114.009 10.7792 113.413 11.0417L115.448 13.9928H113.193ZM101.278 14.2168C99.976 14.2168 98.9625 13.8513 98.2378 13.1203C97.513 12.3894 97.1502 11.3458 97.1502 9.98958V4.81104H99.2602V9.9103C99.2602 11.5662 99.9372 12.3939 101.291 12.3939C101.951 12.3939 102.455 12.1937 102.802 11.7928C103.149 11.3919 103.323 10.7644 103.323 9.9103V4.81104H105.407V9.98958C105.407 11.3458 105.044 12.3894 104.319 13.1203C103.594 13.8513 102.58 14.2168 101.278 14.2168ZM91.5689 9.73797C92.2258 9.73797 92.7252 9.59285 93.0675 9.30262C93.4093 9.01238 93.5802 8.59987 93.5802 8.06554C93.5802 7.52135 93.4093 7.10481 93.0675 6.81412C92.7252 6.52389 92.2258 6.37877 91.5689 6.37877H89.787V9.73797H91.5689ZM91.5653 4.81107C92.386 4.81107 93.0982 4.94678 93.7025 5.21776C94.3071 5.48873 94.7722 5.87347 95.0988 6.37198C95.425 6.87048 95.5884 7.46081 95.5884 8.14295C95.5884 8.81613 95.425 9.40422 95.0988 9.9072C94.7722 10.4097 94.3071 10.7949 93.7025 11.0614C93.0982 11.3279 92.386 11.4614 91.5653 11.4614H89.6994V13.9929H87.5556V4.81107H91.5653Z" fill="#734EE1"/>
<mask id="mask1_1_1192" style="mask-type:alpha" maskUnits="userSpaceOnUse" x="72" y="2" width="14" height="14">
<path fill-rule="evenodd" clip-rule="evenodd" d="M71.9999 2.42261H85.2679V15.5776H71.9999V2.42261Z" fill="white"/>
</mask>
<g mask="url(#mask1_1_1192)">
<rect x="71.9999" y="2.42261" width="13.268" height="13.155" rx="1.81144" fill="#734EE1"/>
<path fill-rule="evenodd" clip-rule="evenodd" d="M74.1463 6.153H76.4877V3.79688H74.1463V6.153Z" fill="white"/>
<path fill-rule="evenodd" clip-rule="evenodd" d="M77.4633 7.13466H79.8047V4.77854H77.4633V7.13466Z" fill="white"/>
<path fill-rule="evenodd" clip-rule="evenodd" d="M75.1218 9.49092H77.4633L77.4633 7.13466L75.1218 7.1348V9.49092Z" fill="white"/>
<path fill-rule="evenodd" clip-rule="evenodd" d="M79.8047 11.847H82.1461V9.49084H79.8047V11.847Z" fill="white"/>
<path fill-rule="evenodd" clip-rule="evenodd" d="M79.8047 7.13466H82.1461V4.77854H79.8047V7.13466Z" fill="white"/>
<path fill-rule="evenodd" clip-rule="evenodd" d="M77.4633 11.847H79.8047V9.49084L77.4633 9.49092L77.4633 11.847Z" fill="white"/>
<path fill-rule="evenodd" clip-rule="evenodd" d="M75.1218 14.2032H77.4633L77.4633 11.847L75.1218 11.8471V14.2032Z" fill="white"/>
<path fill-rule="evenodd" clip-rule="evenodd" d="M79.8047 9.49084H82.1461V7.13466H79.8047L79.8047 9.49084Z" fill="white"/>
<path fill-rule="evenodd" clip-rule="evenodd" d="M75.1218 11.8471L77.4633 11.847L77.4633 9.49092H75.1218V11.8471Z" fill="white"/>
</g>
</svg>
