<svg width="120" height="120" viewBox="0 0 120 120" fill="none" xmlns="http://www.w3.org/2000/svg">
<ellipse cx="60" cy="60" rx="33.1456" ry="51.7072" transform="rotate(45 60 60)" fill="#DEB3B3"/>
<path d="M45.2811 97.5446C63.8095 83.9249 79.1842 72.1624 77.3564 50.8589C75.5645 30.4657 55.8534 30.4657 50.2984 33.379C41.6614 37.9311 36.3215 45.36 45.2452 52.8253C54.169 45.36 48.8291 37.8582 40.192 33.379C34.5295 30.4657 14.8901 30.4657 13.134 50.8589C11.4496 69.941 26 83.5972 36.8232 91.6088" stroke="#907272" stroke-width="1.5" stroke-linecap="round" stroke-linejoin="round"/>
<path d="M81.6658 45.5251L74.3831 45.0049L72.8225 68.4137L76.4639 65.8127L80.6254 57.4896L81.6658 45.5251Z" fill="#DEB3B3"/>
<path d="M59.0278 67.8923C81.5435 79.7702 91.2006 39.5059 90.2033 42.8799C86.3572 45.0377 82.4057 45.0207 75.5528 44.549C61.9833 43.6148 56.2649 54.3141 59.3947 62.5623C60.3396 59.9498 63.5999 54.819 69.0821 55.1964" stroke="#907272" stroke-width="1.5" stroke-linecap="round"/>
</svg>
